<?xml version="1.0" encoding="UTF-8" standalone="no"?>
<!DOCTYPE svg PUBLIC "-//W3C//DTD SVG 1.1//EN" "http://www.w3.org/Graphics/SVG/1.1/DTD/svg11.dtd">
<svg width="100%" height="100%" viewBox="0 0 87 167" version="1.1" xmlns="http://www.w3.org/2000/svg" xmlns:xlink="http://www.w3.org/1999/xlink" xml:space="preserve" xmlns:serif="http://www.serif.com/" style="fill-rule:evenodd;clip-rule:evenodd;stroke-linecap:round;stroke-linejoin:round;stroke-miterlimit:1.5;">
    <g transform="matrix(1,0,0,1,-1709.713796,-1198.501466)">
        <g>
            <path d="M1735,1202C1735.739,1201.403 1740.328,1200.674 1740.328,1200.674C1740.328,1200.674 1748.888,1200.112 1753,1200C1756.999,1199.891 1760.833,1199.5 1764,1200C1766.655,1200.419 1770.333,1201.5 1772,1203C1773.662,1204.496 1774.667,1206.833 1775,1209C1775.333,1211.167 1774.833,1214.167 1774,1216C1773.22,1217.717 1771.333,1219 1770,1220C1769.157,1220.632 1766.29,1220.986 1766,1222C1765.333,1224.333 1765.382,1230.671 1765,1235C1764.5,1240.667 1763.333,1251.167 1763,1256C1762.817,1258.66 1762.543,1261.373 1763,1264C1763.667,1267.833 1765.03,1274.215 1767,1279C1769.333,1284.667 1773.414,1291.806 1777,1298C1780.667,1304.333 1786.167,1311.5 1789,1317C1791.269,1321.405 1793,1327.333 1794,1331C1794.707,1333.593 1795,1336.333 1795,1339C1795,1341.667 1794.833,1344.667 1794,1347C1793.192,1349.264 1791.816,1351.426 1790,1353C1787.5,1355.167 1783.035,1358.386 1779,1360C1774.833,1361.667 1769.667,1362.5 1765,1363C1760.36,1363.497 1755.5,1363.167 1751,1363C1746.657,1362.839 1742,1362.667 1738,1362C1734.251,1361.375 1730.518,1360.439 1727,1359C1723.333,1357.5 1718.5,1355.167 1716,1353C1713.969,1351.24 1712.802,1348.565 1712,1346C1711.167,1343.333 1710.849,1340.015 1711,1337C1711.167,1333.667 1711.738,1329.506 1713,1326C1714.5,1321.833 1717.411,1316.53 1720,1312C1722.667,1307.333 1726.333,1302.5 1729,1298C1731.509,1293.766 1734,1288.833 1736,1285C1737.724,1281.696 1740,1277.833 1741,1275C1741.784,1272.777 1741.929,1270.356 1742,1268C1742.167,1262.5 1742,1249 1742,1242C1742,1236.667 1742.167,1229.167 1742,1226C1741.945,1224.947 1741.745,1223.745 1741,1223C1740.167,1222.167 1738.114,1221.99 1737,1221C1735.5,1219.667 1732.833,1217.333 1732,1215C1731.167,1212.667 1731.5,1209.167 1732,1207C1732.437,1205.106 1732.974,1203.636 1735,1202Z" style="fill:none;stroke:rgb(200,170,110);stroke-width:2.5px;"/>
            <path d="M1754,1206C1751.167,1206.167 1747.5,1206.667 1745,1207C1742.99,1207.268 1740.333,1207.5 1739,1208C1738.117,1208.331 1737.333,1209.167 1737,1210C1736.667,1210.833 1736.667,1212.167 1737,1213C1737.333,1213.833 1738.333,1214.5 1739,1215C1739.596,1215.447 1740.26,1215.908 1741,1216C1742.333,1216.167 1747,1216 1747,1216C1747,1216 1746.833,1237.333 1747,1245C1747.123,1250.675 1748.167,1257 1748,1262C1747.854,1266.382 1747,1271 1746,1275C1745.054,1278.785 1743.411,1282.841 1742.577,1285.007C1742.31,1285.703 1741,1288 1741,1288C1741,1288 1744.46,1288.281 1746,1289C1748.5,1290.167 1752.871,1292.694 1756,1295C1759.167,1297.333 1762.235,1300.09 1765,1303C1768.167,1306.333 1772.833,1311.5 1775,1315C1776.664,1317.689 1777.333,1321.333 1778,1324C1778.572,1326.287 1778.833,1328.667 1779,1331C1779.166,1333.327 1779.333,1336 1779,1338C1778.705,1339.771 1777.904,1341.449 1777,1343C1775.833,1345 1773.833,1348.167 1772,1350C1770.3,1351.7 1766.833,1353.167 1766,1354C1765.667,1354.333 1766.531,1354.948 1767,1355C1768.5,1355.167 1772.667,1355.333 1775,1355C1777.087,1354.702 1779.167,1354 1781,1353C1782.833,1352 1784.925,1350.844 1786,1349C1787.167,1347 1787.667,1343.5 1788,1341C1788.308,1338.687 1788.33,1336.31 1788,1334C1787.667,1331.667 1786.901,1329.253 1786,1327C1785,1324.5 1783.437,1321.612 1782,1319C1780.167,1315.667 1777.333,1311 1775,1307C1772.667,1303 1770.167,1299 1768,1295C1765.87,1291.068 1762,1283 1762,1283C1762,1283 1758.833,1276.167 1758,1273C1757.232,1270.081 1757.167,1267 1757,1264C1756.834,1261.005 1756.842,1257.996 1757,1255C1757.167,1251.833 1757.722,1248.338 1758,1245C1758.333,1241 1758.839,1235.676 1759,1231C1759.167,1226.167 1759,1216 1759,1216L1765,1216C1765,1216 1767.333,1214.833 1768,1214C1768.658,1213.177 1769.167,1212 1769,1211C1768.833,1210 1767.978,1208.699 1767,1208C1765.833,1207.167 1763.774,1206.273 1762,1206C1759.833,1205.667 1756.662,1205.843 1754,1206Z" style="fill:none;stroke:rgb(217,82,40);stroke-width:2.5px;"/>
            <path d="M1741,1355C1739.167,1355.333 1731.333,1356.167 1728,1355C1724.885,1353.91 1722.5,1350.333 1721,1348C1719.688,1345.959 1719.321,1343.405 1719,1341C1718.667,1338.5 1718.562,1335.63 1719,1333C1719.5,1330 1721,1326 1722,1323C1722.901,1320.298 1724.167,1317 1725,1315C1725.573,1313.624 1726.333,1312.167 1727,1311C1727.596,1309.957 1728.61,1307.792 1729.228,1306.762C1730.228,1305.095 1731.833,1302.5 1733,1301C1733.738,1300.051 1734.827,1299.261 1736,1299C1737.5,1298.667 1740.051,1298.55 1742,1299C1744.167,1299.5 1746.791,1300.749 1749,1302C1751.968,1303.682 1756.713,1306.427 1759.807,1309.09C1762.771,1311.641 1765.895,1315.474 1767.561,1317.974C1768.731,1319.728 1769.49,1321.954 1770,1324C1770.534,1326.141 1771.036,1328.847 1771.203,1330.847C1771.341,1332.508 1771.439,1334.392 1771,1336C1770.5,1337.833 1769.193,1340.38 1768,1342C1766.897,1343.498 1765.457,1344.751 1763.84,1345.722C1762.174,1346.722 1760.084,1347.679 1758,1348C1755.833,1348.333 1753.167,1348.333 1751,1348C1748.916,1347.679 1746.802,1347.094 1745,1346C1743.037,1344.809 1740.468,1342.688 1739.223,1340.855C1738.067,1339.151 1737.695,1337.102 1737.533,1335C1737.366,1332.833 1738,1328 1738,1328L1739,1328C1739,1328 1738.877,1332.06 1739.362,1334C1739.862,1336 1740.833,1338.333 1742,1340C1743.081,1341.545 1744.667,1343.167 1746,1344C1747.165,1344.728 1748.58,1345.534 1749.922,1345.832C1751.422,1346.165 1753.5,1346 1755,1346C1756.374,1346 1757.771,1345.615 1759,1345C1760.333,1344.333 1762.103,1343.41 1763.357,1342.313C1764.69,1341.146 1766.167,1339.5 1767,1338C1767.825,1336.514 1767.923,1334.698 1768,1333C1768.097,1330.862 1768.036,1327.393 1767.583,1325.173C1767.186,1323.223 1766.286,1321.348 1765.286,1319.681C1764.286,1318.015 1763.374,1316.374 1762,1315C1760.5,1313.5 1758,1311.833 1756,1311C1754.128,1310.22 1752.022,1309.856 1750,1310C1747.667,1310.167 1744.333,1310.833 1742,1312C1739.671,1313.164 1737.667,1315 1736,1317C1734.333,1319 1733,1321.833 1732,1324C1731.117,1325.914 1730.416,1327.998 1730,1330C1729.59,1331.969 1729.501,1333.847 1729.501,1336.013C1729.501,1337.68 1729.667,1341.5 1730,1343C1730.323,1344.455 1731.106,1345.807 1732,1347C1733,1348.333 1734.833,1350 1736,1351C1736.913,1351.782 1738.167,1352.333 1739,1353C1739.736,1353.589 1741.928,1354.831 1741,1355Z" style="fill:none;stroke:rgb(253,176,81);stroke-width:2.5px;"/>
        </g>
    </g>
</svg>
